<svg width="675" height="539" viewBox="0 0 675 539" fill="none" xmlns="http://www.w3.org/2000/svg">
<g clip-path="url(#clip0_58_46)">
<rect width="675" height="539" rx="6" fill="white"/>
<path d="M331.307 495.666C318.239 495.666 305.3 490.766 295.338 480.836C275.412 460.977 275.412 428.867 295.338 409.137L521.117 184.11C541.043 164.251 573.13 164.251 593.056 184.11C612.981 203.969 612.981 235.95 593.056 255.809L367.277 480.836C357.314 490.766 344.375 495.666 331.307 495.666Z" fill="black" fill-opacity="0.05"/>
<path d="M296.041 409.848L296.044 409.845L521.823 184.818C541.358 165.348 572.815 165.348 592.35 184.818C611.883 204.286 611.883 235.632 592.35 255.101L366.571 480.128C356.804 489.862 344.123 494.666 331.307 494.666C318.492 494.666 305.81 489.862 296.044 480.128C276.509 460.658 276.512 429.185 296.041 409.848Z" stroke="black" stroke-opacity="0.2" stroke-width="2"/>
<path d="M258.462 286.63C245.394 286.63 232.456 281.729 222.493 271.8L80.9441 130.594C61.0186 110.734 61.0186 78.7535 80.9441 58.8944C100.87 39.0352 133.087 39.0352 152.883 58.8944L294.432 199.972C314.357 219.831 314.357 251.812 294.432 271.671C284.469 281.6 271.53 286.501 258.462 286.501V286.63Z" fill="black" fill-opacity="0.05"/>
<path d="M81.6504 129.886L81.6501 129.885C62.1166 110.417 62.1166 79.071 81.6501 59.6026C101.187 40.1312 132.771 40.1345 152.175 59.6003L152.177 59.6026L293.726 200.68C313.259 220.148 313.259 251.494 293.726 270.962C283.959 280.697 271.278 285.501 258.462 285.501H257.462V285.62C244.989 285.376 232.711 280.572 223.199 271.091L81.6504 129.886Z" stroke="black" stroke-opacity="0.2" stroke-width="2"/>
<line x1="-15.2929" y1="32.2929" x2="328.707" y2="376.293" stroke="#A3320B" stroke-opacity="0.2" stroke-width="2" stroke-dasharray="4 4"/>
<line x1="675.704" y1="33.7103" x2="124.704" y2="579.71" stroke="#A3320B" stroke-opacity="0.2" stroke-width="2" stroke-dasharray="4 4"/>
<line x1="608.707" y1="-40.2929" x2="-51.2929" y2="619.707" stroke="#A3320B" stroke-opacity="0.2" stroke-width="2" stroke-dasharray="4 4"/>
<line x1="419.707" y1="-277.293" x2="-240.293" y2="382.707" stroke="#A3320B" stroke-opacity="0.2" stroke-width="2" stroke-dasharray="4 4"/>
<line x1="734.704" y1="114.71" x2="183.704" y2="660.71" stroke="#A3320B" stroke-opacity="0.2" stroke-width="2" stroke-dasharray="4 4"/>
<line x1="83.7071" y1="-8.70711" x2="399.707" y2="307.293" stroke="#A3320B" stroke-opacity="0.2" stroke-width="2" stroke-dasharray="4 4"/>
<line x1="373.707" y1="-33.7071" x2="689.707" y2="282.293" stroke="#A3320B" stroke-opacity="0.2" stroke-width="2" stroke-dasharray="4 4"/>
<line x1="-53.2929" y1="131.293" x2="419.707" y2="604.293" stroke="#A3320B" stroke-opacity="0.2" stroke-width="2" stroke-dasharray="4 4"/>
<path d="M93.6105 76.2702C97.418 71.8943 99.57 71.9105 103.403 76.0093" stroke="black" stroke-opacity="0.5"/>
<path d="M103.7 84.8901C103.354 84.5739 103.1 84.2326 102.937 83.8662C102.777 83.5014 102.714 83.1406 102.748 82.7838C102.785 82.4269 102.926 82.1013 103.169 81.8072L103.83 82.4109C103.685 82.5967 103.608 82.8004 103.598 83.0221C103.59 83.242 103.639 83.4635 103.746 83.6866C103.853 83.9096 104.01 84.1154 104.216 84.3039C104.447 84.5147 104.688 84.6614 104.94 84.7439C105.192 84.8264 105.434 84.8424 105.666 84.7917C105.898 84.741 106.101 84.6213 106.273 84.4326C106.454 84.2351 106.564 84.0165 106.603 83.7768C106.644 83.5353 106.609 83.2855 106.499 83.0274C106.389 82.7693 106.197 82.5157 105.924 82.2665L105.494 81.8736L106.022 81.2969L106.451 81.6898C106.665 81.8847 106.887 82.0171 107.118 82.0872C107.351 82.1588 107.576 82.1663 107.795 82.1095C108.015 82.0544 108.212 81.9324 108.384 81.7437C108.55 81.562 108.655 81.3671 108.697 81.1591C108.74 80.951 108.722 80.7424 108.644 80.5331C108.568 80.3254 108.431 80.1313 108.233 79.9508C108.048 79.7815 107.842 79.6558 107.616 79.5739C107.392 79.4917 107.171 79.4673 106.951 79.5007C106.733 79.5323 106.538 79.6332 106.367 79.8034L105.738 79.2285C106.005 78.9567 106.315 78.7878 106.667 78.7217C107.021 78.6538 107.381 78.6779 107.746 78.7938C108.114 78.9114 108.452 79.1115 108.761 79.3942C109.093 79.6976 109.317 80.0253 109.431 80.377C109.548 80.7271 109.57 81.0696 109.498 81.4046C109.426 81.7396 109.274 82.0339 109.042 82.2872C108.766 82.5896 108.451 82.7746 108.097 82.8425C107.745 82.9119 107.396 82.864 107.05 82.6985L107.011 82.7405C107.299 83.1062 107.432 83.4924 107.41 83.8989C107.39 84.3036 107.224 84.6764 106.913 85.0172C106.646 85.309 106.327 85.4985 105.955 85.5855C105.587 85.6725 105.206 85.6578 104.812 85.5414C104.418 85.4251 104.047 85.208 103.7 84.8901ZM106.284 87.1171L106.715 86.6453L110.26 86.3251C110.675 86.288 111.027 86.247 111.315 86.2023C111.604 86.1557 111.849 86.0878 112.05 85.9983C112.254 85.9087 112.43 85.7818 112.581 85.6175C112.753 85.4288 112.857 85.2239 112.892 85.0028C112.929 84.7833 112.904 84.5649 112.818 84.3476C112.731 84.1303 112.59 83.933 112.396 83.7557C112.19 83.5672 111.971 83.4456 111.739 83.3906C111.51 83.3356 111.285 83.3457 111.062 83.4211C110.841 83.498 110.637 83.6388 110.45 83.8432L109.831 83.2778C110.119 82.9633 110.444 82.7534 110.806 82.6483C111.168 82.5432 111.535 82.5385 111.906 82.6341C112.279 82.7313 112.622 82.9228 112.935 83.2087C113.249 83.4962 113.467 83.8173 113.589 84.1721C113.71 84.527 113.737 84.8802 113.669 85.2318C113.601 85.5834 113.441 85.8972 113.189 86.1733C113.008 86.3708 112.796 86.5312 112.552 86.6544C112.311 86.7775 111.998 86.8745 111.612 86.9455C111.23 87.0163 110.734 87.0763 110.125 87.1255L107.74 87.3131L107.702 87.355L110.197 89.6358L109.67 90.2124L106.284 87.1171Z" fill="black" fill-opacity="0.5"/>
<path d="M262.611 246.27C266.418 241.894 268.57 241.91 272.403 246.009" stroke="black" stroke-opacity="0.5"/>
<path d="M272.7 254.89C272.354 254.574 272.1 254.233 271.937 253.866C271.777 253.501 271.714 253.141 271.748 252.784C271.786 252.427 271.926 252.101 272.169 251.807L272.83 252.411C272.685 252.597 272.608 252.8 272.598 253.022C272.59 253.242 272.639 253.463 272.746 253.687C272.853 253.91 273.01 254.115 273.216 254.304C273.447 254.515 273.688 254.661 273.94 254.744C274.192 254.826 274.434 254.842 274.666 254.792C274.898 254.741 275.101 254.621 275.273 254.433C275.454 254.235 275.564 254.017 275.603 253.777C275.644 253.535 275.61 253.286 275.499 253.027C275.389 252.769 275.197 252.516 274.924 252.267L274.495 251.874L275.022 251.297L275.452 251.69C275.665 251.885 275.887 252.017 276.118 252.087C276.351 252.159 276.576 252.166 276.795 252.11C277.015 252.054 277.212 251.932 277.384 251.744C277.55 251.562 277.655 251.367 277.697 251.159C277.74 250.951 277.722 250.742 277.644 250.533C277.568 250.325 277.431 250.131 277.233 249.951C277.048 249.781 276.842 249.656 276.616 249.574C276.392 249.492 276.171 249.467 275.951 249.501C275.733 249.532 275.538 249.633 275.367 249.803L274.738 249.228C275.005 248.957 275.315 248.788 275.667 248.722C276.021 248.654 276.381 248.678 276.747 248.794C277.114 248.911 277.452 249.111 277.761 249.394C278.093 249.698 278.317 250.025 278.431 250.377C278.548 250.727 278.57 251.07 278.498 251.405C278.426 251.74 278.274 252.034 278.042 252.287C277.766 252.59 277.451 252.775 277.097 252.842C276.745 252.912 276.396 252.864 276.05 252.699L276.011 252.74C276.299 253.106 276.432 253.492 276.41 253.899C276.39 254.304 276.224 254.676 275.913 255.017C275.646 255.309 275.327 255.498 274.955 255.586C274.587 255.672 274.206 255.658 273.812 255.541C273.418 255.425 273.047 255.208 272.7 254.89ZM275.284 257.117L275.715 256.645L279.26 256.325C279.675 256.288 280.027 256.247 280.315 256.202C280.604 256.156 280.849 256.088 281.05 255.998C281.254 255.909 281.431 255.782 281.581 255.618C281.753 255.429 281.857 255.224 281.892 255.003C281.929 254.783 281.905 254.565 281.818 254.348C281.731 254.13 281.59 253.933 281.396 253.756C281.19 253.567 280.971 253.446 280.739 253.391C280.51 253.336 280.285 253.346 280.062 253.421C279.841 253.498 279.637 253.639 279.45 253.843L278.831 253.278C279.119 252.963 279.444 252.753 279.806 252.648C280.168 252.543 280.535 252.538 280.906 252.634C281.279 252.731 281.622 252.923 281.935 253.209C282.249 253.496 282.467 253.817 282.589 254.172C282.711 254.527 282.737 254.88 282.669 255.232C282.601 255.583 282.441 255.897 282.189 256.173C282.008 256.371 281.796 256.531 281.552 256.654C281.311 256.778 280.998 256.875 280.612 256.945C280.23 257.016 279.734 257.076 279.125 257.125L276.74 257.313L276.702 257.355L279.197 259.636L278.67 260.212L275.284 257.117Z" fill="black" fill-opacity="0.5"/>
<path d="M309.694 471.591C305.708 467.377 305.933 465.236 310.385 461.819" stroke="black" stroke-opacity="0.5"/>
<path d="M319.253 462.387C318.904 462.7 318.54 462.92 318.16 463.046C317.781 463.17 317.416 463.198 317.064 463.13C316.712 463.057 316.402 462.886 316.133 462.616L316.798 462.017C316.969 462.178 317.164 462.275 317.384 462.306C317.602 462.336 317.827 462.309 318.059 462.224C318.292 462.139 318.512 462.003 318.719 461.816C318.952 461.607 319.121 461.381 319.228 461.138C319.334 460.896 319.374 460.656 319.346 460.42C319.318 460.184 319.218 459.971 319.047 459.781C318.868 459.582 318.661 459.452 318.427 459.389C318.19 459.325 317.938 459.335 317.671 459.42C317.403 459.505 317.132 459.671 316.858 459.918L316.425 460.307L315.902 459.727L316.335 459.337C316.549 459.144 316.703 458.936 316.795 458.713C316.889 458.488 316.918 458.264 316.883 458.041C316.85 457.816 316.747 457.609 316.576 457.419C316.411 457.236 316.228 457.113 316.025 457.05C315.822 456.988 315.612 456.985 315.396 457.043C315.182 457.098 314.976 457.216 314.777 457.395C314.591 457.563 314.446 457.756 314.342 457.973C314.238 458.187 314.193 458.405 314.205 458.627C314.215 458.847 314.296 459.051 314.449 459.238L313.816 459.809C313.571 459.516 313.433 459.191 313.402 458.834C313.368 458.475 313.427 458.12 313.578 457.767C313.731 457.413 313.963 457.096 314.274 456.815C314.609 456.514 314.956 456.324 315.318 456.244C315.677 456.162 316.02 456.173 316.347 456.278C316.673 456.382 316.951 456.562 317.181 456.817C317.455 457.121 317.609 457.453 317.642 457.812C317.677 458.169 317.595 458.511 317.397 458.84L317.435 458.882C317.827 458.631 318.224 458.536 318.627 458.597C319.027 458.657 319.382 458.858 319.691 459.201C319.956 459.495 320.113 459.831 320.164 460.209C320.215 460.584 320.163 460.962 320.009 461.343C319.855 461.724 319.603 462.072 319.253 462.387ZM321.72 460.031L321.292 459.556L321.318 455.997C321.321 455.58 321.315 455.226 321.298 454.935C321.28 454.642 321.236 454.392 321.167 454.184C321.097 453.972 320.988 453.784 320.839 453.618C320.668 453.428 320.474 453.305 320.258 453.249C320.043 453.19 319.823 453.194 319.598 453.259C319.374 453.325 319.164 453.445 318.968 453.621C318.761 453.808 318.618 454.014 318.541 454.24C318.464 454.462 318.452 454.688 318.506 454.917C318.561 455.144 318.681 455.361 318.866 455.567L318.244 456.128C317.958 455.811 317.781 455.467 317.712 455.097C317.642 454.726 317.673 454.36 317.804 454C317.937 453.638 318.161 453.316 318.476 453.032C318.793 452.747 319.134 452.561 319.499 452.475C319.864 452.388 320.218 452.396 320.561 452.498C320.904 452.599 321.201 452.789 321.451 453.067C321.63 453.266 321.769 453.493 321.868 453.748C321.968 453.999 322.034 454.321 322.067 454.711C322.1 455.099 322.112 455.598 322.101 456.209L322.057 458.601L322.095 458.643L324.607 456.381L325.13 456.961L321.72 460.031Z" fill="black" fill-opacity="0.5"/>
<path d="M569.694 214.591C565.708 210.377 565.933 208.236 570.385 204.819" stroke="black" stroke-opacity="0.5"/>
<path d="M579.253 205.387C578.904 205.7 578.54 205.92 578.16 206.046C577.781 206.17 577.416 206.198 577.064 206.13C576.712 206.057 576.402 205.886 576.133 205.616L576.798 205.017C576.969 205.178 577.164 205.275 577.384 205.306C577.602 205.336 577.827 205.309 578.059 205.224C578.292 205.139 578.512 205.003 578.719 204.816C578.952 204.607 579.121 204.381 579.228 204.138C579.334 203.896 579.374 203.656 579.346 203.42C579.318 203.184 579.218 202.971 579.047 202.781C578.868 202.582 578.661 202.452 578.427 202.389C578.19 202.325 577.938 202.335 577.671 202.42C577.403 202.505 577.132 202.671 576.858 202.918L576.425 203.307L575.902 202.727L576.335 202.337C576.549 202.144 576.703 201.936 576.795 201.713C576.889 201.488 576.918 201.264 576.883 201.041C576.85 200.816 576.747 200.609 576.576 200.419C576.411 200.236 576.228 200.113 576.025 200.05C575.822 199.988 575.612 199.985 575.396 200.043C575.182 200.098 574.976 200.216 574.777 200.395C574.591 200.563 574.446 200.756 574.342 200.973C574.238 201.187 574.193 201.405 574.205 201.627C574.215 201.847 574.296 202.051 574.449 202.238L573.816 202.809C573.571 202.516 573.433 202.191 573.402 201.834C573.368 201.475 573.427 201.12 573.578 200.767C573.731 200.413 573.963 200.096 574.274 199.815C574.609 199.514 574.956 199.324 575.318 199.244C575.677 199.162 576.02 199.173 576.347 199.278C576.673 199.382 576.951 199.562 577.181 199.817C577.455 200.121 577.609 200.453 577.642 200.812C577.677 201.169 577.595 201.511 577.397 201.84L577.435 201.882C577.827 201.631 578.224 201.536 578.627 201.597C579.027 201.657 579.382 201.858 579.691 202.201C579.956 202.495 580.113 202.831 580.164 203.209C580.215 203.584 580.163 203.962 580.009 204.343C579.855 204.724 579.603 205.072 579.253 205.387ZM581.72 203.031L581.292 202.556L581.318 198.997C581.321 198.58 581.315 198.226 581.298 197.935C581.28 197.642 581.236 197.392 581.167 197.184C581.097 196.972 580.988 196.784 580.839 196.618C580.668 196.428 580.474 196.305 580.258 196.249C580.043 196.19 579.823 196.194 579.598 196.259C579.374 196.325 579.164 196.445 578.968 196.621C578.761 196.808 578.618 197.014 578.541 197.24C578.464 197.462 578.452 197.688 578.506 197.917C578.561 198.144 578.681 198.361 578.866 198.567L578.244 199.128C577.958 198.811 577.781 198.467 577.712 198.097C577.642 197.726 577.673 197.36 577.804 197C577.937 196.638 578.161 196.316 578.476 196.032C578.793 195.747 579.134 195.561 579.499 195.475C579.864 195.388 580.218 195.396 580.561 195.498C580.904 195.599 581.201 195.789 581.451 196.067C581.63 196.266 581.769 196.493 581.868 196.748C581.968 196.999 582.034 197.321 582.067 197.711C582.1 198.099 582.112 198.598 582.101 199.209L582.057 201.601L582.095 201.643L584.607 199.381L585.13 199.961L581.72 203.031Z" fill="black" fill-opacity="0.5"/>
</g>
<defs>
<clipPath id="clip0_58_46">
<rect width="675" height="539" fill="white"/>
</clipPath>
</defs>
</svg>
