<svg width="24" height="20" viewBox="0 0 24 20" fill="none" xmlns="http://www.w3.org/2000/svg">
<path d="M11.7479 20C11.1692 20 10.5963 19.783 10.1552 19.3433C9.27285 18.4639 9.27285 17.0421 10.1552 16.1684L20.1528 6.20413C21.0351 5.32476 22.456 5.32476 23.3383 6.20413C24.2206 7.0835 24.2206 8.49963 23.3383 9.379L13.3407 19.3433C12.8995 19.783 12.3266 20 11.7479 20Z" fill="white"/>
<path d="M8.52232 10.7438C7.94366 10.7438 7.37073 10.5268 6.92958 10.0871L0.661733 3.8344C-0.220578 2.95503 -0.220578 1.5389 0.661733 0.659529C1.54404 -0.219843 2.97064 -0.219843 3.84722 0.659529L10.1151 6.9065C10.9974 7.78587 10.9974 9.202 10.1151 10.0814C9.67391 10.5211 9.10098 10.738 8.52232 10.738V10.7438Z" fill="white"/>
</svg>
