<svg width="675" height="539" viewBox="0 0 675 539" fill="none" xmlns="http://www.w3.org/2000/svg">
<g clip-path="url(#clip0_64_48)">
<rect width="675" height="539" rx="6" fill="white"/>
<rect width="675" height="539" fill="url(#paint0_linear_64_48)"/>
<g filter="url(#filter0_b_64_48)">
<rect width="675" height="539" fill="black" fill-opacity="0.1"/>
</g>
<path d="M258.465 273.16C258.465 264.75 263.915 259.03 271.895 259.03C278.635 259.03 282.895 262.81 284.035 268.85H279.395C278.585 265.18 275.885 262.97 271.845 262.97C266.555 262.97 262.995 267.18 262.995 273.16C262.995 279.14 266.555 283.25 271.845 283.25C275.785 283.25 278.475 280.98 279.345 277.48H284.035C282.955 283.41 278.475 287.19 271.795 287.19C263.755 287.19 258.475 281.74 258.475 273.17L258.465 273.16Z" fill="white"/>
<path d="M285.485 251.86C285.485 250.19 286.725 249 288.345 249C289.965 249 291.205 250.19 291.205 251.86C291.205 253.53 289.965 254.72 288.345 254.72C286.725 254.72 285.485 253.53 285.485 251.86ZM286.075 259.36H290.495V286.87H286.075V259.36Z" fill="white"/>
<path d="M318.325 286.87H313.905V271.82C313.905 266.1 311.265 263.08 306.465 263.08C301.285 263.08 298.155 266.91 298.155 273.11V286.86H293.735V259.36H297.565L298.155 263.08C299.775 260.98 302.575 259.03 307.215 259.03C313.415 259.03 318.325 262.43 318.325 271.54V286.87Z" fill="white"/>
<path d="M345.775 286.87H341.355V271.82C341.355 266.1 338.715 263.08 333.915 263.08C328.735 263.08 325.605 266.91 325.605 273.11V286.86H321.185V259.36H325.015L325.605 263.08C327.225 260.98 330.025 259.03 334.665 259.03C340.865 259.03 345.775 262.43 345.775 271.54V286.87Z" fill="white"/>
<path d="M374.365 282.82V286.87H371.935C368.265 286.87 367.025 285.31 366.975 282.61C365.245 285.09 362.495 287.19 357.755 287.19C351.715 287.19 347.615 284.17 347.615 279.15C347.615 273.65 351.445 270.57 358.675 270.57H366.765V268.68C366.765 265.12 364.225 262.96 359.915 262.96C356.035 262.96 353.445 264.79 352.905 267.6H348.485C349.135 262.21 353.505 259.02 360.135 259.02C367.145 259.02 371.195 262.53 371.195 268.94V280.97C371.195 282.43 371.735 282.8 372.975 282.8H374.375L374.365 282.82ZM366.755 274.3H358.235C354.295 274.3 352.085 275.76 352.085 278.88C352.085 281.58 354.405 283.41 358.075 283.41C363.575 283.41 366.755 280.23 366.755 275.64V274.29V274.3Z" fill="white"/>
<path d="M416.055 271.01V286.87H411.635V271.28C411.635 265.89 409.265 263.08 405.105 263.08C400.525 263.08 397.715 266.53 397.715 272.14V286.87H393.295V271.28C393.295 265.89 390.865 263.08 386.665 263.08C382.135 263.08 379.385 266.86 379.385 272.36V286.87H374.965V259.36H378.795L379.385 263.14C380.845 261.14 383.165 259.04 387.425 259.04C391.255 259.04 394.545 260.77 396.105 264.27C397.775 261.3 400.745 259.04 405.655 259.04C411.375 259.04 416.065 262.33 416.065 271.01H416.055Z" fill="white"/>
<path d="M417.615 273.11C417.615 264.75 423.225 259.03 431.265 259.03C439.305 259.03 444.915 264.75 444.915 273.11C444.915 281.47 439.305 287.19 431.265 287.19C423.225 287.19 417.615 281.47 417.615 273.11ZM440.375 273.11C440.375 267.23 436.705 262.97 431.255 262.97C425.805 262.97 422.135 267.23 422.135 273.11C422.135 278.99 425.805 283.25 431.255 283.25C436.705 283.25 440.375 278.99 440.375 273.11Z" fill="white"/>
<path d="M471.765 286.87H467.345V271.82C467.345 266.1 464.705 263.08 459.905 263.08C454.725 263.08 451.595 266.91 451.595 273.11V286.86H447.175V259.36H451.005L451.595 263.08C453.215 260.98 456.015 259.03 460.655 259.03C466.855 259.03 471.765 262.43 471.765 271.54V286.87Z" fill="white"/>
<path d="M222.505 290.18C221.495 290.18 220.495 289.8 219.725 289.03C218.185 287.49 218.185 285 219.725 283.47L237.175 266.02C238.715 264.48 241.195 264.48 242.735 266.02C244.275 267.56 244.275 270.04 242.735 271.58L225.285 289.03C224.515 289.8 223.515 290.18 222.505 290.18Z" fill="white"/>
<path d="M216.875 273.97C215.865 273.97 214.865 273.59 214.095 272.82L203.155 261.87C201.615 260.33 201.615 257.85 203.155 256.31C204.695 254.77 207.185 254.77 208.715 256.31L219.655 267.25C221.195 268.79 221.195 271.27 219.655 272.81C218.885 273.58 217.885 273.96 216.875 273.96V273.97Z" fill="white"/>
</g>
<defs>
<filter id="filter0_b_64_48" x="-100" y="-100" width="875" height="739" filterUnits="userSpaceOnUse" color-interpolation-filters="sRGB">
<feFlood flood-opacity="0" result="BackgroundImageFix"/>
<feGaussianBlur in="BackgroundImageFix" stdDeviation="50"/>
<feComposite in2="SourceAlpha" operator="in" result="effect1_backgroundBlur_64_48"/>
<feBlend mode="normal" in="SourceGraphic" in2="effect1_backgroundBlur_64_48" result="shape"/>
</filter>
<linearGradient id="paint0_linear_64_48" x1="337.5" y1="0" x2="337.5" y2="539" gradientUnits="userSpaceOnUse">
<stop stop-color="white"/>
<stop offset="0.25" stop-color="#D39D8B"/>
<stop offset="0.75" stop-color="#A3320B"/>
<stop offset="1" stop-color="#290B00"/>
</linearGradient>
<clipPath id="clip0_64_48">
<rect width="675" height="539" fill="white"/>
</clipPath>
</defs>
</svg>
