<svg width="675" height="539" viewBox="0 0 675 539" fill="none" xmlns="http://www.w3.org/2000/svg">
<g clip-path="url(#clip0_64_8)">
<rect width="675" height="539" rx="6" fill="white"/>
<g clip-path="url(#clip1_64_8)">
<path d="M335.435 365.456C283.579 365.456 241.544 323.421 241.544 271.565C241.544 219.709 283.579 177.674 335.435 177.674C387.291 177.674 429.326 219.709 429.326 271.565C429.326 323.421 387.291 365.456 335.435 365.456ZM313.934 343.551C304.671 323.903 299.305 302.645 298.132 280.954H260.904C262.731 295.403 268.715 309.01 278.129 320.123C287.543 331.235 299.982 339.374 313.934 343.551V343.551ZM316.939 280.954C318.356 303.854 324.901 325.365 335.435 344.349C346.254 324.863 352.574 303.201 353.932 280.954H316.939V280.954ZM409.966 280.954H372.738C371.566 302.645 366.199 323.903 356.936 343.551C370.888 339.374 383.327 331.235 392.741 320.123C402.155 309.01 408.139 295.403 409.966 280.954V280.954ZM260.904 262.176H298.132C299.305 240.485 304.671 219.227 313.934 199.578C299.982 203.755 287.543 211.895 278.129 223.007C268.715 234.12 262.731 247.727 260.904 262.176V262.176ZM316.948 262.176H353.922C352.568 239.929 346.251 218.268 335.435 198.78C324.616 218.267 318.296 239.928 316.939 262.176H316.948ZM356.936 199.578C366.199 219.227 371.566 240.485 372.738 262.176H409.966C408.139 247.727 402.155 234.12 392.741 223.007C383.327 211.895 370.888 203.755 356.936 199.578V199.578Z" fill="#A3320B"/>
</g>
<circle cx="337" cy="270" r="176.828" stroke="#D19885" stroke-width="6.25941"/>
<circle cx="434.021" cy="270" r="273.849" stroke="#D19885" stroke-width="6.25941"/>
<circle cx="239.979" cy="270" r="273.849" stroke="#D19885" stroke-width="6.25941"/>
<circle cx="337" cy="172.979" r="273.849" stroke="#D19885" stroke-width="6.25941"/>
<circle cx="337" cy="367.021" r="273.849" stroke="#D19885" stroke-width="6.25941"/>
</g>
<defs>
<clipPath id="clip0_64_8">
<rect width="675" height="539" fill="white"/>
</clipPath>
<clipPath id="clip1_64_8">
<rect width="225.339" height="225.339" fill="white" transform="translate(222.766 158.895)"/>
</clipPath>
</defs>
</svg>
