<svg width="675" height="539" viewBox="0 0 675 539" fill="none" xmlns="http://www.w3.org/2000/svg">
<g clip-path="url(#clip0_64_8)">
<rect width="675" height="539" rx="6" fill="white"/>
<g clip-path="url(#clip1_64_8)">
<path d="M336.209 318.239C310.004 318.239 288.761 296.996 288.761 270.791C288.761 244.585 310.004 223.343 336.209 223.343C362.415 223.343 383.657 244.585 383.657 270.791C383.657 296.996 362.415 318.239 336.209 318.239ZM325.344 307.169C320.663 297.24 317.951 286.497 317.358 275.536H298.545C299.468 282.837 302.492 289.714 307.25 295.329C312.007 300.945 318.293 305.058 325.344 307.169V307.169ZM326.862 275.536C327.578 287.108 330.886 297.978 336.209 307.572C341.677 297.725 344.87 286.778 345.556 275.536H326.862V275.536ZM373.873 275.536H355.06C354.468 286.497 351.756 297.24 347.075 307.169C354.125 305.058 360.411 300.945 365.169 295.329C369.926 289.714 372.95 282.837 373.873 275.536V275.536ZM298.545 266.046H317.358C317.951 255.085 320.663 244.342 325.344 234.413C318.293 236.524 312.007 240.637 307.25 246.252C302.492 251.868 299.468 258.744 298.545 266.046V266.046ZM326.867 266.046H345.552C344.867 254.804 341.675 243.857 336.209 234.009C330.742 243.857 327.548 254.803 326.862 266.046H326.867ZM347.075 234.413C351.756 244.342 354.468 255.085 355.06 266.046H373.873C372.95 258.744 369.926 251.868 365.169 246.252C360.411 240.637 354.125 236.524 347.075 234.413V234.413Z" fill="#A3320B"/>
</g>
<circle cx="337" cy="270" r="89.3598" stroke="#D19885" stroke-width="3.16318"/>
<circle cx="386.029" cy="270" r="138.389" stroke="#D19885" stroke-width="3.16318"/>
<circle cx="287.971" cy="270" r="138.389" stroke="#D19885" stroke-width="3.16318"/>
<circle cx="337" cy="220.971" r="138.389" stroke="#D19885" stroke-width="3.16318"/>
<circle cx="337" cy="319.029" r="138.389" stroke="#D19885" stroke-width="3.16318"/>
</g>
<defs>
<clipPath id="clip0_64_8">
<rect width="675" height="539" fill="white"/>
</clipPath>
<clipPath id="clip1_64_8">
<rect width="113.874" height="113.874" fill="white" transform="translate(279.272 213.854)"/>
</clipPath>
</defs>
</svg>
